# xmcd
#
# Track frame offsets:
#       150
#       18081
#       37115
#       59121
#       73981
#       97034
#       116662
#       136282
#       155003
#       186729
#       208148
#       233926
#
# Disc length: 3313 seconds
#
# Revision: 0
# Processed by: cddbd v1.5.1PL0 Copyright (c) Steve Scherf et al.
# Submitted via: CD-DA_X-Tractor v0.24
#
DISCID=c00cef0c
DTITLE=Robben Ford and The Blues Line - Handful Of Blues
DYEAR=1900
DGENRE=Blues
TTITLE0=Rugged Road
TTITLE1=Chevrolet
TTITLE2=When I Leave Here
TTITLE3=The Miller's Son
TTITLE4=Don't Let Me Be Misunderstood
TTITLE5=Top Of The Hill
TTITLE6=Running Out On Me
TTITLE7=Tired Of Talking
TTITLE8=Good Thing
TTITLE9=Think Twice
TTITLE10=I Just Want To Make Love To You
TTITLE11=Strong Will To Live
EXTD=
EXTT0=
EXTT1=
EXTT2=
EXTT3=
EXTT4=
EXTT5=
EXTT6=
EXTT7=
EXTT8=
EXTT9=
EXTT10=
EXTT11=
PLAYORDER=
